HIERARCHY
ROOT Hips
{
	OFFSET 0.000000 0.000000 0.000000
	CHANNELS 6 Xposition Yposition Zposition Zrotation Yrotation Xrotation 
	JOINT LHipJoint
	{
		OFFSET 0.000000 0.000000 0.000000
		CHANNELS 3 Zrotation Yrotation Xrotation
		JOINT LeftUpLeg
		{
			OFFSET 1.363060 -1.794630 0.839290
			CHANNELS 3 Zrotation Yrotation Xrotation
			JOINT LeftLeg
			{
				OFFSET 2.448110 -6.726130 0.000000
				CHANNELS 3 Zrotation Yrotation Xrotation
				JOINT LeftFoot
				{
					OFFSET 2.562200 -7.039590 0.000000
					CHANNELS 3 Zrotation Yrotation Xrotation
					JOINT LeftToeBase
					{
						OFFSET 0.157640 -0.433110 2.322550
						CHANNELS 3 Zrotation Yrotation Xrotation
						End Site
						{
							OFFSET 0.000000 0.000000 0.000000
						}
					}
				}
			}
		}
	}
	JOINT RHipJoint
	{
		OFFSET 0.000000 0.000000 0.000000
		CHANNELS 3 Zrotation Yrotation Xrotation
		JOINT RightUpLeg
		{
			OFFSET -1.305520 -1.794630 0.839290
			CHANNELS 3 Zrotation Yrotation Xrotation
			JOINT RightLeg
			{
				OFFSET -2.542530 -6.985550 0.000000
				CHANNELS 3 Zrotation Yrotation Xrotation
				JOINT RightFoot
				{
					OFFSET -2.568260 -7.056230 0.000000
					CHANNELS 3 Zrotation Yrotation Xrotation
					JOINT RightToeBase
					{
						OFFSET -0.164730 -0.452590 2.363150
						CHANNELS 3 Zrotation Yrotation Xrotation
						End Site
						{
							OFFSET 0.000000 0.000000 0.000000
						}
					}
				}
			}
		}
	}
	JOINT LowerBack
	{
		OFFSET 0.000000 0.000000 0.000000
		CHANNELS 3 Zrotation Yrotation Xrotation
		JOINT Spine
		{
			OFFSET 0.028270 2.035590 -0.193380
			CHANNELS 3 Zrotation Yrotation Xrotation
			JOINT Spine1
			{
				OFFSET 0.056720 2.048850 -0.042750
				CHANNELS 3 Zrotation Yrotation Xrotation
				JOINT Neck
				{
					OFFSET 0.000000 0.000000 0.000000
					CHANNELS 3 Zrotation Yrotation Xrotation
					JOINT Neck1
					{
						OFFSET -0.054170 1.746240 0.172020
						CHANNELS 3 Zrotation Yrotation Xrotation
						JOINT Head
						{
							OFFSET 0.104070 1.761360 -0.123970
							CHANNELS 3 Zrotation Yrotation Xrotation
							End Site
							{
								OFFSET 0.000000 0.000000 0.000000
							}
						}
					}
				}
				JOINT LeftShoulder
				{
					OFFSET 0.000000 0.000000 0.000000
					CHANNELS 3 Zrotation Yrotation Xrotation
					JOINT LeftArm
					{
						OFFSET 3.362410 1.200890 -0.311210
						CHANNELS 3 Zrotation Yrotation Xrotation
						JOINT LeftForeArm
						{
							OFFSET 4.983000 -0.000000 -0.000000
							CHANNELS 3 Zrotation Yrotation Xrotation
							JOINT LeftHand
							{
								OFFSET 3.483560 -0.000000 -0.000000
								CHANNELS 3 Zrotation Yrotation Xrotation
								JOINT LeftFingerBase
								{
									OFFSET 0.000000 0.000000 0.000000
									CHANNELS 3 Zrotation Yrotation Xrotation
									JOINT LeftHandIndex1
									{
										OFFSET 0.715260 -0.000000 -0.000000
										CHANNELS 3 Zrotation Yrotation Xrotation
										End Site
										{
											OFFSET 0.000000 0.000000 0.000000
										}
									}
								}
								JOINT LThumb
								{
									OFFSET 0.000000 0.000000 0.000000
									CHANNELS 3 Zrotation Yrotation Xrotation
									End Site
									{
										OFFSET 0.000000 0.000000 0.000000
									}
								}
							}
						}
					}
				}
				JOINT RightShoulder
				{
					OFFSET 0.000000 0.000000 0.000000
					CHANNELS 3 Zrotation Yrotation Xrotation
					JOINT RightArm
					{
						OFFSET -3.136600 1.374050 -0.404650
						CHANNELS 3 Zrotation Yrotation Xrotation
						JOINT RightForeArm
						{
							OFFSET -5.241900 -0.000000 -0.000000
							CHANNELS 3 Zrotation Yrotation Xrotation
							JOINT RightHand
							{
								OFFSET -3.444170 -0.000000 -0.000000
								CHANNELS 3 Zrotation Yrotation Xrotation
								JOINT RightFingerBase
								{
									OFFSET 0.000000 0.000000 0.000000
									CHANNELS 3 Zrotation Yrotation Xrotation
									JOINT RightHandIndex1
									{
										OFFSET -0.622530 -0.000000 -0.000000
										CHANNELS 3 Zrotation Yrotation Xrotation
										End Site
										{
											OFFSET 0.000000 0.000000 0.000000
										}
									}
								}
								JOINT RThumb
								{
									OFFSET 0.000000 0.000000 0.000000
									CHANNELS 3 Zrotation Yrotation Xrotation
									End Site
									{
										OFFSET 0.000000 0.000000 0.000000
									}
								}
							}
						}
					}
				}
			}
		}
	}
}
MOTION
Frames: 11
Frame Time: 0.008333
-33.937538 16.473273 9.489444 49.553267 86.535574 64.348367 2.658358 -9.830050 -15.326140 -18.009255 5.889284 -6.767113 -6.472454 11.238434 34.517574 7.094161 4.702872 -3.179090 16.867897 -5.542704 -29.754119 4.796568 15.073658 -15.971838 5.560781 -11.970842 -33.629824 -0.385710 -21.336659 48.421569 -3.887389 -2.817518 -3.482322 -10.412572 1.778191 -26.537978 -3.363381 1.331882 33.447973 2.554086 -2.501626 -9.245985 2.109236 -3.091557 -3.722069 -1.939658 2.005344 -10.504315 2.567747 1.108372 6.208367 1.676139 0.012475 8.385900 20.596868 -6.259234 0.324545 -80.273092 -34.477566 14.397748 170.226189 -73.900379 -169.739197 -21.701066 22.328463 -7.389735 0.000001 -0.000001 0.000002 0.000000 -0.000000 0.000000 0.000000 0.000000 0.000000 -13.488253 2.339872 1.020557 78.016150 10.518828 8.210178 -36.917564 74.895582 -22.979921 15.195961 2.434948 0.916977 -0.000000 -0.000000 -0.000000 0.000000 -0.000000 -0.000000 -0.000000 -0.000000 -0.000000 
-33.717267 16.530180 9.479084 49.902130 86.498480 64.937021 2.465537 -9.895799 -15.214666 -17.635738 6.613823 -6.703655 -6.260924 11.347554 34.498540 4.145058 3.564909 -2.164696 17.282931 -7.585206 -28.257333 4.733326 14.923026 -15.875740 6.221430 -11.092023 -33.642837 2.337996 -19.432453 44.718693 -5.297748 -2.632330 -3.456828 -11.052695 3.163092 -26.217577 -3.382808 1.297972 33.313272 2.610915 -2.595874 -9.376829 2.321243 -3.217141 -3.861726 -2.054064 2.075302 -10.534713 2.504137 1.198543 6.169099 1.545991 0.237984 8.364303 20.248526 -6.232344 0.414907 -80.206266 -34.078024 14.354466 170.163763 -73.572311 -169.112738 -23.655187 21.548517 -7.497407 0.000001 -0.000001 0.000002 0.000000 0.000000 -0.000000 -0.000000 0.000000 -0.000000 -13.325826 2.378376 0.967566 77.970280 10.254410 8.233656 -37.626989 75.115988 -23.042014 15.653651 3.182004 1.146558 -0.000000 -0.000000 -0.000000 -0.000000 -0.000000 -0.000000 -0.000000 -0.000000 -0.000000 
-33.503604 16.568619 9.470946 50.842679 86.375534 65.884842 2.444886 -10.024627 -15.191647 -17.286992 6.754212 -6.416044 -6.645868 11.653684 34.793082 2.708252 2.952464 -0.905974 19.046108 -10.748744 -28.009622 4.391694 14.672081 -15.905941 7.157714 -10.491117 -33.370244 4.110805 -17.930492 41.277546 -4.243815 -1.568466 -4.329817 -12.295048 4.672478 -27.139664 -3.361767 1.270559 33.300777 2.603323 -2.647782 -9.423271 2.099270 -3.294615 -3.972805 -1.881933 2.163215 -10.522372 2.453718 1.232598 6.179569 1.717284 0.307784 8.546454 20.443211 -6.338666 0.355118 -80.220832 -33.468708 14.316336 169.902498 -73.173308 -168.298948 -22.552405 21.004526 -7.082545 0.000001 -0.000001 0.000002 0.000000 -0.000000 0.000000 0.000000 -0.000000 -0.000000 -13.133716 2.400872 0.896890 78.067974 9.846827 8.348745 -39.031253 75.270836 -24.295134 15.091900 2.917484 1.047087 0.000000 0.000000 0.000000 0.000000 0.000000 0.000000 0.000000 0.000000 0.000000 
-33.278979 16.617718 9.472417 52.014140 86.195468 67.210241 2.272133 -10.042571 -14.997529 -16.891264 7.214703 -6.549927 -6.640817 11.965756 35.108687 0.058875 2.018477 0.639441 18.822602 -13.232509 -25.279427 4.350535 14.385198 -15.874957 7.896537 -9.896466 -33.117057 5.462744 -16.224265 37.613172 -3.060695 -0.194868 -4.517031 -11.910664 3.856211 -27.306652 -3.538485 1.269138 33.166589 2.655793 -2.733519 -9.535278 2.401524 -3.362765 -4.043636 -2.139232 2.234751 -10.593259 2.387653 1.349365 6.191759 1.913447 0.465367 8.574405 20.006049 -6.351817 0.214528 -80.188951 -32.743698 14.269868 170.062409 -72.829103 -168.235690 -22.973238 20.866956 -7.112645 0.000001 -0.000001 0.000002 0.000000 -0.000000 0.000000 0.000000 0.000000 0.000000 -13.148913 2.401621 0.883219 78.047087 9.557362 8.449948 -40.142810 75.458465 -25.892820 15.597427 2.128688 0.846024 0.000000 -0.000000 -0.000000 -0.000000 -0.000000 -0.000000 0.000000 -0.000000 -0.000000 
-33.054054 16.652703 9.467913 52.175510 86.110181 67.421966 2.386297 -10.048698 -14.867516 -16.725483 7.709379 -6.528942 -6.081270 13.012935 35.228333 -4.211313 0.762875 2.391044 18.221425 -13.634931 -23.923489 3.968904 14.237246 -15.760451 8.931146 -9.230960 -32.725896 6.730976 -14.492962 33.691606 -1.478393 0.895783 -4.287222 -12.719663 5.266217 -27.346705 -3.556231 1.194171 32.984410 2.684982 -2.841675 -9.569236 2.365700 -3.445661 -4.183897 -2.108479 2.339651 -10.496129 2.342978 1.437607 6.215299 2.128996 0.716644 8.486399 19.965251 -6.330792 0.266517 -80.211760 -32.049561 14.544275 169.052711 -72.396569 -166.860202 -21.815236 20.630606 -6.809291 0.000001 -0.000001 0.000002 0.000000 0.000000 0.000000 -0.000000 0.000000 -0.000000 -13.050890 2.585967 0.860602 78.114061 9.106187 8.358196 -40.846943 75.758799 -26.886430 15.353246 1.539134 0.671814 0.000000 -0.000000 0.000000 0.000000 -0.000000 0.000000 0.000000 -0.000000 0.000000 
-32.823123 16.682432 9.476081 54.123849 85.874865 69.461642 2.322977 -10.145018 -14.596996 -16.337813 7.972820 -6.812117 -5.785816 14.060452 35.506608 -8.217081 -0.177361 4.462499 19.509784 -18.362425 -21.934898 3.821120 13.975944 -15.704949 9.652680 -8.716588 -32.426252 7.230887 -13.289604 30.655558 0.534013 2.184822 -3.729480 -11.622831 4.926563 -25.303432 -3.749837 1.217143 32.768824 2.709823 -2.856659 -9.649614 2.587144 -3.430702 -4.239323 -2.370893 2.340169 -10.526508 2.195477 1.497663 6.258115 2.432948 0.673892 8.527984 19.554331 -6.450814 0.194429 -80.201002 -31.402428 14.730528 168.876613 -72.071468 -166.666074 -21.713204 20.883729 -6.879817 0.000001 -0.000001 0.000002 0.000000 0.000000 0.000000 0.000000 0.000000 0.000000 -13.087553 2.460709 0.848123 78.080612 8.732522 8.196491 -41.294148 76.086808 -26.974850 15.361114 1.818434 0.750412 0.000000 0.000000 -0.000000 0.000000 0.000000 -0.000000 0.000000 0.000000 -0.000000 
-32.593994 16.697297 9.485465 55.546306 85.716370 70.885648 2.237514 -10.183733 -14.456562 -15.727717 8.494582 -7.152683 -5.649352 14.626320 36.225696 -12.390524 -0.686948 6.663577 17.358470 -19.920931 -17.263523 3.636532 13.774162 -15.646369 10.334873 -8.244427 -32.204525 7.385188 -12.842903 28.476691 4.005657 3.236197 -3.283006 -11.071814 4.946913 -24.017466 -3.806640 1.139571 32.606088 2.742419 -3.019277 -9.724235 2.491383 -3.592650 -4.249424 -2.353774 2.334300 -10.561536 2.000210 1.497604 6.289930 2.360640 0.575986 8.563176 19.409507 -6.070396 0.408819 -80.203905 -30.916895 15.107797 168.379955 -71.762582 -165.418942 -22.072159 20.022421 -6.640229 0.000001 -0.000001 0.000002 0.000000 0.000000 0.000000 0.000000 0.000000 0.000000 -12.945735 2.896695 0.575162 78.044995 8.191960 8.172176 -42.708499 76.268015 -28.871993 15.269734 1.055374 0.533921 -0.000000 0.000000 -0.000000 -0.000000 -0.000000 0.000000 -0.000000 0.000000 -0.000000 
-32.363363 16.701502 9.497628 57.223520 85.558882 72.482507 2.326991 -10.189932 -14.307496 -15.288653 8.649922 -7.294670 -5.017488 16.179047 36.621403 -17.160857 -1.339111 9.463724 11.514465 -22.901369 -5.497190 3.261836 13.601734 -15.528336 10.917053 -7.316726 -31.735845 7.621510 -12.784245 26.009321 6.655762 4.163589 -2.738088 -11.033995 6.306850 -22.321800 -3.839529 1.163291 32.400792 2.722869 -2.996378 -9.730873 2.480905 -3.498985 -4.301918 -2.518219 2.597709 -10.520937 1.783243 1.742998 6.392183 3.922560 0.776223 8.734268 19.297539 -6.354436 0.187845 -80.219945 -30.111603 15.195088 168.442915 -71.474056 -165.115530 -21.450630 19.835725 -6.462739 0.000001 -0.000001 0.000002 0.000000 -0.000000 0.000000 0.000000 -0.000000 0.000000 -12.985137 2.687917 0.695622 78.067483 7.868683 7.835816 -42.904259 76.693698 -29.195968 15.409803 0.864609 0.483963 -0.000000 -0.000000 0.000000 0.000000 -0.000000 0.000000 -0.000000 -0.000000 0.000000 
-32.132733 16.692943 9.509925 58.851441 85.491847 73.903577 2.623762 -10.110067 -14.219548 -15.075440 9.207769 -7.411358 -4.900499 16.480133 37.450832 -21.199006 -0.995957 11.740721 4.300533 -26.475385 8.910241 2.676512 13.463233 -15.335399 11.923926 -6.594873 -31.354454 7.854825 -12.322152 23.648835 9.553481 4.738856 -2.182684 -10.859415 6.892464 -21.260018 -3.796861 1.128533 32.184429 2.695118 -3.000686 -9.660460 2.576992 -3.485925 -4.173786 -2.748921 2.398374 -10.577103 1.615776 1.648832 6.451694 3.008618 0.553539 9.280257 19.198110 -6.358023 0.170296 -80.272279 -29.601616 15.614599 167.544980 -71.094242 -163.221875 -21.029907 18.731760 -6.006594 0.000001 -0.000001 0.000002 0.000000 -0.000000 -0.000000 -0.000000 -0.000000 -0.000000 -13.275899 2.584546 0.698809 78.177571 7.580553 7.739765 -43.882114 76.967607 -29.873615 16.421413 1.271694 0.626861 -0.000000 0.000000 0.000000 -0.000000 -0.000000 -0.000000 -0.000000 0.000000 0.000000 
-31.904204 16.662763 9.530976 62.675595 85.336494 77.421960 2.791288 -10.083839 -14.172514 -14.942819 10.741359 -8.055853 -3.938908 16.407589 39.082919 -25.604119 -1.137902 14.365445 -10.146611 -13.652473 32.504732 2.155343 13.426577 -15.201512 12.511217 -6.084204 -30.963803 7.981862 -12.684571 22.183612 12.200130 4.888002 -1.409652 -10.936487 8.108724 -20.096953 -3.904031 1.112799 32.019395 2.692165 -3.152907 -9.600163 2.562468 -3.508942 -4.091745 -2.892444 2.649676 -10.587443 1.447459 1.840649 6.556441 5.449221 0.225754 9.579625 19.217761 -6.302189 0.106160 -80.275259 -28.927822 15.620164 167.409634 -70.823026 -163.049883 -21.404679 18.755462 -6.077456 0.000001 -0.000001 0.000002 -0.000000 0.000000 -0.000000 0.000000 0.000000 0.000000 -13.463180 2.595428 0.798795 78.280591 7.463730 7.405766 -43.978382 77.413349 -30.212063 17.283155 1.126757 0.607941 0.000000 -0.000000 0.000000 0.000000 0.000000 0.000000 0.000000 -0.000000 0.000000 
-31.666817 16.642342 9.550330 66.540874 85.138556 81.228754 2.371543 -10.121627 -14.041848 -13.936915 10.415061 -8.486899 -3.514947 17.349322 40.430672 -29.461618 -0.838021 16.427336 -16.436535 6.574866 46.164885 2.291609 13.434552 -15.056953 12.362490 -5.968417 -30.956942 8.146922 -13.373621 21.769826 14.217437 4.545221 -0.254613 -10.677747 9.632508 -17.935472 -3.976975 1.139325 31.801380 2.703062 -3.267026 -9.734063 2.226630 -3.569550 -4.076851 -2.762131 2.798825 -10.646836 1.194300 1.947249 6.653843 6.487031 0.182537 10.135252 19.059208 -6.253926 -0.004130 -80.158150 -28.137612 15.595227 167.600215 -70.714806 -162.382767 -21.930550 17.687740 -5.788449 0.000001 -0.000001 0.000002 0.000000 0.000000 0.000000 -0.000000 0.000000 0.000000 -13.001444 2.619899 0.790317 78.083315 7.313293 7.478528 -45.201286 77.557516 -31.644798 17.093582 0.663040 0.465088 0.000000 -0.000000 -0.000000 0.000000 -0.000000 -0.000000 0.000000 -0.000000 -0.000000 
